<svg
	id="logoIcon"
	version="1.1"
	xmlns="http://www.w3.org/2000/svg"
	xmlns:xlink="http://www.w3.org/1999/xlink"
	xml:space="preserve"
	x="0px"
	y="0px"
	width="512px"
	height="512px"
	viewBox="-163.708 0 1650.321 1650.321"
>
<circle
	cx="661.4525"
	cy="825.1605"
	r="825.1605"
	fill="DeepSkyBlue"
/>
<g
	style="fill: Black;"
	transform="matrix(.7,0,0,.7,200,240)"
	>
	<g>
		<path d="M1133.341,463.102c-7.012,0.214-268.13,183.99-265.45,182.109c-10.876,7.629-19.609,17.925-25.36,29.901
			c-4.595,9.57-11.317,21.375-10.716,40.213c0.088,2.758,1.844,50.499,0.31,52.916c-2.81,4.418-202.644,132.169-202.644,137.404
			c0,1.594,3.503,6.988,7.783,11.988v0.002c5.646,6.596,9.027,8.852,12.321,8.224c2.495-0.477,43.813-27.108,91.818-59.179
			c82.52-55.131,88.584-59.624,111.19-82.407l17.453-17.59c4.133-4.165,9.757-6.508,15.625-6.508
			c36.634,0,30.831,1.884,68.223-23.116c58.403-39.045,125.524-85.522,138.968-96.221c28.229-22.468,51.326-51.398,60.962-76.357
			c6.666-17.268,6.703-43.234,0.085-63.16C1145.866,477.095,1138.254,462.95,1133.341,463.102z"></path>
		<path d="M652.093,775.979c0.712,1.854,2.133,3.37,3.16,3.37c2.424,0,68.762-43.822,76.506-48.895
			c0-75.54,0.528-146.534-2.331-148.299c-1.28-0.793-10.469,4.091-20.418,10.848c-51.177,34.761-57.996,50.544-58.135,134.506
			C650.834,752.316,651.382,774.125,652.093,775.979z"></path>
		<path d="M1235.498,221.17c-3.539,0-27.877,16.639-174.57,119.363c-293.471,205.507-274.316,193.606-287.02,207.054
			c-5.797-4.324-11.322-8.6-27.225-19.281c-7.616-5.115-14.328-9.815-14.914-10.444c-1.361-1.456,38.703,1.01,44.808,1.34
			c196.997-133.005,436.685-297.461,449.761-307.185c51.121-38.004,76.397-75.909,76.397-114.569
			c0-21.529-17.297-72.287-24.635-72.287c-4.218,0-51.447,32.3-232.096,158.762C862.993,312.041,829.005,335.276,793.373,356.624
			c-92.282,55.287-227.044,149.134-255.612,253.313c-12.959,47.262,9.924,80.529,12.318,127.87
			c0.999,19.784,0.594,22.751-5.678,41.545c-7.875,23.593-16.386,38.494-22.492,50.066c-1.998,0.277-24.744,3.666-25.6,2.795
			c-0.358-0.366-2.122-16.004-3.918-34.753c-10.618-110.798-42.459-198.611-97.51-268.932c-5.714-7.299-10.388-13.737-10.388-14.313
			c0-1.851,25.699-45.224,24.009-49.623c-1.003-2.618-4.64-2.9-21.663-1.67c-101.286,7.305-185.694,34.329-225.704,72.256
			c-17.679,16.758-26.876,45.079-17.638,54.317c8.699,8.699,35.943,4.713,70.634-10.335c10.981-4.762,20.734-8.403,21.673-8.092
			c3.309,1.104-13.132,22.517-21.045,27.407c-10.574,6.536-38.004,7.827-68.338,3.217c-11.999-1.822-23.024-2.831-24.501-2.243
			c-3.822,1.528-22.132,26.723-28.911,39.787c-8.021,15.463-9.046,38.172-2.508,55.587c4.926,13.117,24.859,44.378,29.126,45.676
			c1.387,0.422,8.234-7.68,15.218-18.005c22.146-32.739,33.031-39.921,60.022-39.604c11.912,0.138,20.794,1.845,34.893,6.698
			c10.403,3.581,19.394,6.99,19.978,7.576c2.399,2.399,4.604,20.51,4.689,38.517c0.098,20.798-4.889,45.098-17.055,83.098
			c-9.949,31.073-15.001,41.355-35.093,71.433c-33.061,49.485-40.426,71.527-38.773,116.041c0.854,23.077,2.348,32.669,8.95,57.523
			c13.207,49.717,15.804,62.771,18.158,91.264c4.443,53.795,15.377,68.937,7.265,109.002c-4.405,21.748-3.909,39.298-4.078,166.178
			c-21.78,72.32-24.526,84.426-41.853,100.007c-13.789,12.395-30.82,22.447-38.08,22.475c-7.782,0.028-34.095-8.503-40.309-8.503
			c-4.796,0-22.515,16.969-31.702,30.357c-8.692,12.666-21.691,39.024-21.691,43.98c0,2.275,1.199,4.621,2.682,5.213
			c3.456,1.393,161.002,1.375,179.694,1.41c18.573-19.731,31.696-33.069,42.561-67.11c5.222-16.36,6.607-17.317,25.871-17.856
			c10.616-0.298,13.386-3.956,13.399-17.69c0.015-14.402,5.729-46.061,11.515-63.783c7.459-22.855,27.146-62.243,36.448-86.025
			c14.822-37.897,38.411-73.502,48.695-73.502c2.075,0,7.778,2.322,12.674,5.158c21.454,12.434,133.545,55.766,138.919,53.703
			c1.466-0.562,7.996-9.199,14.511-19.196c28.363-43.516,63.262-59.482,64.262-58.482c0.45,0.45-4.766,7.408-11.588,15.463
			c-24.516,28.947-32.092,47.616-32.092,79.092c0,47.959,24.015,93.132,73.065,137.436c26.85,24.251,46.232,44.444,46.238,48.172
			c0.007,4.619-46.37,9.768-94.802-7.077c-32.748-11.392-32.897-11.392-42.393,0.196c-18.906,23.073-36.495,61.81-31.048,68.376
			c3.138,3.784,28.598,3.192,295.009,1.973c38.548-12.131,39.686-12.824,61.55-21.801c49.89,18.191,55.157,20.498,75.952,22.198
			c52.314,4.278,87.216-34.648,87.197-97.25c-0.035-125.499-146.655-177.813-124.99-278.4c6.847-31.788,24.445-55.303,53.263-70.546
			c5.675-3.002,9.175-2.384,11.772,4.852c7.524,20.968,11.785,62.934,25.014,107.905c1.072,3.644,3.243,15.388,8.407,16.045
			c4.451,0.567,8.517-7.511,10.447-10.389c27.103-40.415,32.002-59.856,34.267-80.411c2.305-20.924-5.979-41.633-21.883-55.424
			c-18.154-15.743-37.663-30.139-62.55-31.392c-68.729-3.46-114.256,83.495-109.574,144.453
			c1.093,14.225,6.656,40.307,11.136,52.199c4.288,11.371-188.9-195.882-188.9-204.369c0-5.316,21.192-36.8,31.263-46.449
			c14.778-14.16,237.596-163.782,263.81-184.128c57.285-44.459,79.823-91.6,66.164-138.377
			c-6.317-21.633-16.394-43.675-19.965-43.675c-3.888,0-48.462,29.409-78.837,52.014c-29.453,21.916-22.25,21.747-36.216,40.91
			c-6.004,8.236-7.599,9.061-26.292,13.582c-24.848,6.01-13.979,0.159-217.385,134.617c0.844,6.518,1.31,12.146,6.543,37.514
			c5.625,27.258,5.68,39.919,0.273,61.369c-6.741,26.74-18.929,49.114-37.52,68.875c-34.382,36.548-77.531,52.798-124.542,46.903
			c-23.874-2.993-57.023-16.886-67.89-28.455c-4.186-4.457-3.673-4.38,7.911,1.18c74.478,35.745,159.891-7.591,173.959-88.26
			c11.042-63.325-26.733-120.315-91.475-138.005c-70.232-19.189-142.677,36.54-149.62,115.098
			c-0.636,6.349-0.833,14.537-0.896,23.291c-2.883-12.181-2.455-14.837-2.932-18.771c-2.876-23.702,8.66-67.165,25.659-92.832
			c20.123-30.383,44.642-47.691,90.503-63.887c28.834-10.182,50.829-21.865,91.074-48.379c23.921-15.757,32.907-22.849,33.883-26.74
			c1.697-6.765-0.848-126.562-0.83-125.552c-0.492-27.39-13.076-41.037-13.312-56.389c-0.156-10.144,11.699-18.107,19.718-19.814
			c22.84-4.859,23.624-2.199,55.224-22.402c25.395-16.234,26.248-17.027,31.491-29.313c2.963-6.945,7.018-14.954,9.006-17.796
			c3.541-5.06,3.62-4.821,3.728,11.189c0.132,19.3,3.185,24.251,13.665,22.155c7.673-1.536,22.108-3.131,29.467-3.997
			c-6.871,12.883-7.906,13.863-8.876,21.639l-0.08,0.158l0,0.511c-1.461,12.646-1.536,35.984-3.17,166.283
			c-89.601,60.162-183.222,122.134-183.222,126.779c0,4.28,19.421,15.962,24.501,14.737c4.393-1.061,198.66-130.03,202.092-134.166
			c2.105-2.537,2.412-9.274,1.3-28.476c-1.287-22.219-2.301-27.049-8.684-41.4c-9.687-21.782-9.481-27.803,1.319-38.604
			c5.263-5.263,10.949-8.401,18.837-7.933c16.637,0.987,32.958,3.83,51.52-8.937c308.075-211.899,337.262-229.073,365.583-262.254
			c10.435-12.225,22.726-34.71,26.288-48.094c3.863-14.504,2.964-40.051-1.932-54.896
			C1248.5,239.756,1239.282,221.17,1235.498,221.17z M904.899,1376.726c1.57-1.57,42.518,51.692,55.256,71.876
			c33.977,53.835,38.025,108.156,9.359,125.637c-10.386,6.334-19.108,5.262-28.86-3.547c-13.013-11.756-14.065-17.067-13.316-67.104
			c0.758-50.461-1.986-69.079-15.474-104.986C907.533,1387.07,904.399,1377.227,904.899,1376.726z"></path>
			<circle cx="884.893" cy="790.013" r="19.026"></circle>
			<circle cx="817.631" cy="664.6" r="20.366"></circle>
			<circle cx="637.284" cy="624.404" r="21.438"></circle>
	</g>
</g>
</svg>